name analog
datacolumns 19
datarows 23
range 0.3085 0.3195
endheader
time	ground_force_vx	ground_force_vy	ground_force_vz	ground_force_px	ground_force_py	ground_force_pz	l_ground_force_vx	l_ground_force_vy	l_ground_force_vz	l_ground_force_px	l_ground_force_py	l_ground_force_pz	ground_torque_x	ground_torque_y	ground_torque_z	l_ground_torque_x	l_ground_torque_y	l_ground_torque_z
0.3085	-0.0	-0.0	-0.0	21.588943481445312	28.977813720703125	-432.7281188964844	-6.517665386199951	-26.63668632507324	-412.717529296875	-0.0	-0.0	-0.0	-0.0	-0.0	-0.0	85111.1640625	1838.6307373046875	-16853.6796875
0.309	-0.0	-0.0	-0.0	21.48905372619629	29.344457626342773	-434.1607360839844	-6.731473922729492	-26.63161277770996	-414.09381103515625	-0.0	-0.0	-0.0	-0.0	-0.0	-0.0	85243.8515625	1943.502197265625	-16857.203125
0.3095	-0.0	-0.0	-0.0	21.29949188232422	30.10972595214844	-435.1393127441406	-7.0605878829956055	-26.813676834106445	-413.5806884765625	-0.0	-0.0	-0.0	-0.0	-0.0	-0.0	85214.484375	1928.705810546875	-16934.267578125
0.31	-0.0	-0.0	-0.0	20.900484085083008	30.10947799682617	-436.59619140625	-7.024559020996094	-26.66770362854004	-413.06787109375	-0.0	-0.0	-0.0	-0.0	-0.0	-0.0	85478.1328125	2105.13818359375	-16941.5078125
0.3105	-0.0	-0.0	-0.0	20.702526092529297	30.31570243835449	-437.5899658203125	-6.825111389160156	-26.195772171020508	-414.8893127441406	-0.0	-0.0	-0.0	-0.0	-0.0	-0.0	85682.3046875	2140.286865234375	-16977.458984375
0.311	-0.0	-0.0	-0.0	20.530027389526367	30.19093894958496	-437.6129150390625	-7.498929023742676	-25.795642852783203	-414.9102783203125	-0.0	-0.0	-0.0	-0.0	-0.0	-0.0	85893.3515625	2079.5498046875	-17234.740234375
0.3115	-0.0	-0.0	-0.0	20.44687271118164	29.94781494140625	-437.1184692382813	-8.250102996826172	-25.30706024169922	-417.7713623046875	-0.0	-0.0	-0.0	-0.0	-0.0	-0.0	86356.9921875	2236.67431640625	-17322.234375
0.312	-0.0	-0.0	-0.0	20.79208755493164	29.644908905029297	-435.8240356445313	-9.060436248779297	-25.5661563873291	-418.9584655761719	-0.0	-0.0	-0.0	-0.0	-0.0	-0.0	86697.6484375	2242.730224609375	-17619.54296875
0.3125	-0.0	-0.0	-0.0	20.81534576416016	29.46545791625977	-437.14501953125	-9.184592247009276	-25.465744018554688	-419.5414123535156	-0.0	-0.0	-0.0	-0.0	-0.0	-0.0	86890.40625	2166.208740234375	-17868.728515625
0.313	-0.0	-0.0	-0.0	20.970727920532227	28.81413078308105	-437.23675537109375	-10.27807903289795	-25.4366455078125	-420.9144592285156	-0.0	-0.0	-0.0	-0.0	-0.0	-0.0	87224.2109375	2420.130859375	-17972.244140625
0.3135	-0.0	-0.0	-0.0	20.83384895324707	28.93239402770996	-437.2620849609375	-10.604097366333008	-25.960285186767575	-422.39886474609375	-0.0	-0.0	-0.0	-0.0	-0.0	-0.0	87166.8125	2188.563232421875	-18178.080078125
0.314	-0.0	-0.0	-0.0	20.73168182373047	28.595552444458008	-433.31689453125	-10.5154447555542	-25.979387283325195	-421.2894287109375	-0.0	-0.0	-0.0	-0.0	-0.0	-0.0	87440.8046875	2751.99658203125	-18193.83203125
0.3145	-0.0	-0.0	-0.0	20.29206275939941	27.787403106689453	-433.2147521972656	-11.627696990966797	-26.285533905029297	-421.9108581542969	-0.0	-0.0	-0.0	-0.0	-0.0	-0.0	87068.46875	2757.40966796875	-18295.12109375
0.315	-0.0	-0.0	-0.0	19.941919326782227	27.95248413085937	-433.5950927734375	-12.03697681427002	-26.31322479248047	-420.0818786621094	-0.0	-0.0	-0.0	-0.0	-0.0	-0.0	87022.3671875	2765.666015625	-18495.94140625
0.3155	-0.0	-0.0	-0.0	20.23688316345215	26.821434020996094	-433.677978515625	-12.631165504455566	-26.1024169921875	-419.2780151367188	-0.0	-0.0	-0.0	-0.0	-0.0	-0.0	87005.203125	2692.564697265625	-18503.078125
0.316	-0.0	-0.0	-0.0	19.983154296875	27.02044677734375	-433.6497497558594	-12.59003448486328	-25.42977905273437	-419.5988159179688	-0.0	-0.0	-0.0	-0.0	-0.0	-0.0	87191.65625	2574.004150390625	-18585.103515625
0.3165	-0.0	-0.0	-0.0	20.415027618408203	27.05461883544922	-436.33978271484375	-12.426522254943848	-24.95436668395996	-421.3708190917969	-0.0	-0.0	-0.0	-0.0	-0.0	-0.0	87588.7421875	2803.079833984375	-18671.513671875
0.317	-0.0	-0.0	-0.0	20.523372650146484	27.281105041503903	-439.3273315429688	-12.03100872039795	-24.30777359008789	-422.3690490722656	-0.0	-0.0	-0.0	-0.0	-0.0	-0.0	87802.1953125	2641.489990234375	-18632.494140625
0.3175	-0.0	-0.0	-0.0	20.49944305419922	27.72687149047852	-441.41693115234375	-11.76504611968994	-24.586769104003903	-423.7097473144531	-0.0	-0.0	-0.0	-0.0	-0.0	-0.0	88468.046875	2683.247802734375	-18573.103515625
0.318	-0.0	-0.0	-0.0	20.12067222595215	27.842151641845703	-443.593994140625	-11.717150688171388	-24.888086318969727	-426.1828002929688	-0.0	-0.0	-0.0	-0.0	-0.0	-0.0	89248.3359375	2681.692626953125	-18522.56640625
0.3185	-0.0	-0.0	-0.0	20.01642417907715	27.97939682006836	-446.4913330078125	-11.170082092285156	-24.980148315429688	-428.5100402832031	-0.0	-0.0	-0.0	-0.0	-0.0	-0.0	89884.96875	2695.55859375	-18449.240234375
0.319	-0.0	-0.0	-0.0	20.41145896911621	28.50639533996582	-449.59808349609375	-10.194147109985352	-24.62663078308105	-435.04290771484375	-0.0	-0.0	-0.0	-0.0	-0.0	-0.0	90986.7109375	2433.8017578125	-18243.328125
0.3195	-0.0	-0.0	-0.0	20.405935287475582	28.23883628845215	-453.2911071777344	-9.563277244567873	-24.472749710083008	-440.5991516113281	-0.0	-0.0	-0.0	-0.0	-0.0	-0.0	92387.1796875	1925.0938720703125	-18040.337890625
